<?xml version="1.0" encoding="UTF-8" standalone="no"?>
<!-- Created with Inkscape (http://www.inkscape.org/) -->

<svg
   version="1.1"
   id="svg70535"
   width="15662.323"
   height="8000"
   viewBox="0 0 15662.324 8000.0001"
   xml:space="preserve"
   sodipodi:docname="tshirt logo.svg"
   inkscape:version="1.2.1 (9c6d41e410, 2022-07-14)"
   xmlns:inkscape="http://www.inkscape.org/namespaces/inkscape"
   xmlns:sodipodi="http://sodipodi.sourceforge.net/DTD/sodipodi-0.dtd"
   xmlns="http://www.w3.org/2000/svg"
   xmlns:svg="http://www.w3.org/2000/svg"><sodipodi:namedview
     id="namedview18"
     pagecolor="#ffffff"
     bordercolor="#000000"
     borderopacity="0.25"
     inkscape:showpageshadow="2"
     inkscape:pageopacity="0.0"
     inkscape:pagecheckerboard="0"
     inkscape:deskcolor="#d1d1d1"
     showgrid="false"
     inkscape:zoom="0.08364021"
     inkscape:cx="6964.3537"
     inkscape:cy="4011.2286"
     inkscape:window-width="1920"
     inkscape:window-height="1051"
     inkscape:window-x="-9"
     inkscape:window-y="-9"
     inkscape:window-maximized="1"
     inkscape:current-layer="svg70535" /><defs
     id="defs70539"><style
       id="style141370">
      .cls-1, .cls-3 {
        stroke: #000;
      }

      .cls-1, .cls-2, .cls-3 {
        stroke-miterlimit: 10;
      }

      .cls-2 {
        stroke: #7d9400;
      }

      .cls-3 {
        fill: #fff;
        opacity: 0;
      }
    </style></defs><g
     id="g799"
     transform="matrix(0.13759794,0,0,0.13759794,-1901.7012,11978.072)"><path
       id="path349"
       style="fill:#000000;stroke-width:36.2507"
       d="m 42890.819,-82151.954 c -208.831,0.46 -417.063,-1.565 -628.093,7.321 -1984.288,83.689 -3765.825,546.078 -5574.225,1446.691 -1397.896,696.173 -2422.362,1439.298 -3572.199,2591.414 -1829.895,1833.528 -3040.312,3967.207 -3641.682,6419.099 -292.769,1193.657 -406.792,2126.042 -407.8,3335.045 -1.058,1230.631 112.786,2210.465 387.424,3335.046 560.333,2294.397 1757.765,4510.824 3336.283,6175.339 340.165,358.694 1058.356,999.234 1627.217,1451.365 2242.903,1782.659 4928.629,2773.156 7907.771,2916.312 67.524,3.267 309.205,9.346 565.304,15.788 v -1704.653 0 1704.653 c 256.102,-6.442 497.875,-12.631 565.399,-15.875 2979.143,-143.156 5664.864,-1133.566 7907.763,-2916.225 568.869,-452.131 1286.974,-1092.671 1627.139,-1451.365 1578.518,-1664.515 2775.944,-3880.942 3336.278,-6175.339 274.647,-1124.581 388.546,-2104.415 387.511,-3335.046 -1.013,-1209.003 -115.036,-2141.389 -407.795,-3335.045 -601.38,-2451.892 -1811.88,-4585.571 -3641.779,-6419.099 -1149.832,-1152.116 -2174.211,-1895.241 -3572.102,-2591.414 -1808.401,-900.613 -3589.937,-1363.002 -5574.226,-1446.691 -211.029,-8.904 -419.354,-7.096 -628.188,-7.321 v 1747.6 c 234.599,1.702 466.35,19.147 603.054,54.593 336.677,87.288 717.474,293.905 972.661,527.736 427.287,391.528 630.536,801.777 661.795,1335.921 26.961,460.813 32.901,479.078 138.633,430.904 172.394,-78.548 201.159,-28.767 201.159,347.209 0,598.885 -104.052,863.719 -385.482,981.306 -67.676,28.277 -130.027,72.599 -138.637,98.422 -8.61,25.822 -32.248,238.192 -52.472,471.911 -20.22,233.721 -60.714,470.242 -89.952,525.621 -29.244,55.38 -177.908,222.987 -330.368,372.521 -438.787,430.378 -473.032,553.857 -227.707,820.003 296.717,321.904 1296.44,920.76 2221.538,1330.72 199.379,88.355 638.63,261.005 976.108,383.721 719.301,261.566 954.02,394.493 1237.497,700.681 1168.101,1261.69 620.698,4217.746 -1606.233,8673.27 -937.91,1876.529 -1715.89,3717.751 -3268.455,5709.424 l -692.308,888.083 v -6531.187 c 10.146,-60.382 22.428,-183.315 52.035,-493.96 51.566,-540.983 102.515,-1072.617 134.408,-1401.714 16.69,-172.244 43.982,-454.09 60.581,-626.335 16.607,-172.247 46.508,-482.823 66.502,-690.186 19.985,-207.364 47.553,-500.17 61.289,-650.676 13.74,-150.506 39.095,-424.216 56.356,-608.168 l 31.397,-334.422 66.056,-69.495 c 81.559,-85.791 135.232,-196.379 146.22,-301.526 7.161,-68.545 16.405,-90.288 73.727,-173.031 71.887,-103.768 186.444,-325.601 211.132,-408.767 9.391,-31.657 34.139,-70.244 61.73,-96.394 60.59,-57.411 83.257,-108.016 83.257,-185.995 0,-67.596 -46.347,-169.504 -77.081,-169.504 -9.319,0 -23.547,-39.935 -36.602,-102.743 -42.413,-204.055 -111.561,-384.148 -193.309,-503.397 -129.411,-188.754 -420.426,-385.682 -716.296,-484.788 -95.175,-31.881 -114.727,-34.043 -302.408,-33.954 -239.077,0.138 -291.393,13.413 -533.47,135.11 -170.038,85.482 -261.067,148.961 -377.106,262.987 -161.36,158.562 -239.786,326.937 -305.317,655.614 -9.309,46.682 -20.335,70.383 -34.393,74.081 -31.327,8.236 -75.457,107.311 -75.144,168.71 0.46,71.019 36.031,146.075 88.369,185.996 28.346,21.621 45.22,46.321 50.36,73.728 11.988,63.916 144.436,323.555 220.211,431.697 61.726,88.087 68.568,104.209 72.144,170.209 5.379,99.277 60.23,213.245 145.866,303.026 l 67.202,70.465 31.484,339.536 c 40.95,441.99 202.103,2142.385 248.878,2625.988 52.155,539.242 92.345,956.035 127.437,1322.605 30.09,314.354 42.938,445.688 52.735,510.54 v 6535.95 l -692.308,-888.083 c -1552.56,-1991.673 -2330.546,-3832.895 -3268.455,-5709.424 -2226.931,-4455.524 -2774.334,-7411.58 -1606.234,-8673.27 283.478,-306.188 518.197,-439.116 1237.502,-700.681 337.469,-122.716 776.637,-295.366 976.016,-383.721 925.098,-409.96 1924.909,-1008.817 2221.63,-1330.72 245.321,-266.146 210.993,-389.625 -227.798,-820.003 -152.461,-149.534 -301.125,-317.141 -330.368,-372.521 -29.244,-55.379 -69.733,-291.9 -89.957,-525.621 -20.22,-233.719 -43.771,-446.089 -52.385,-471.911 -8.61,-25.823 -71.049,-70.145 -138.725,-98.422 -281.425,-117.587 -385.394,-382.422 -385.394,-981.306 0,-375.976 28.769,-425.757 201.164,-347.209 105.731,48.174 111.667,29.908 138.633,-430.904 31.263,-534.145 234.42,-944.393 661.702,-1335.921 255.187,-233.836 635.984,-440.448 972.666,-527.736 136.704,-35.442 368.455,-52.891 603.05,-54.593 z m -9730.157,198.605 c -43.78,5.623 -143.759,44.544 -303.817,106.979 -234.746,91.567 -495.635,186.176 -579.771,210.16 -299.96,85.498 -1006.156,409.976 -1526.506,701.386 -1151.332,644.778 -1604.697,1147.992 -1958.993,2174.534 -481.692,1395.657 -538.6,1598.936 -464.855,1661.525 25.282,21.458 18.223,53.631 -45.33,206.368 -41.405,99.501 -75.273,187.098 -75.319,194.639 0,7.54 11.978,4.39 26.901,-6.88 14.923,-11.264 139.424,-100.43 276.653,-198.166 820.154,-584.094 1535.521,-1207.855 1899.646,-1656.587 80.938,-99.744 306.187,-412.142 500.66,-694.154 675.576,-979.653 1093.932,-1477.828 2018.35,-2403.478 222.101,-222.396 305.358,-305.695 232.381,-296.326 z m 19443.384,0 c -37.706,8.684 49.775,96.169 249.669,296.326 924.413,925.65 1342.599,1423.825 2018.17,2403.478 194.474,282.012 419.814,594.41 500.752,694.154 364.121,448.732 1079.487,1072.493 1899.646,1656.587 137.23,97.736 261.726,186.902 276.654,198.166 14.923,11.269 27.067,14.42 26.988,6.88 0,-7.541 -34.088,-95.138 -75.494,-194.639 -63.553,-152.737 -70.616,-184.91 -45.33,-206.368 73.745,-62.589 17.007,-265.868 -464.68,-1661.525 -354.297,-1026.542 -807.661,-1529.756 -1958.998,-2174.534 -520.345,-291.41 -1226.541,-615.888 -1526.501,-701.386 -84.136,-23.984 -345.02,-118.593 -579.771,-210.16 -186.734,-72.844 -291.784,-113.729 -321.105,-106.979 z m -23511.47,1958.644 c -5.384,0 -171.015,90.039 -368.111,200.193 -197.105,110.149 -384.888,206 -417.237,213.073 -201.077,43.977 -728.665,415.904 -1078.848,760.561 -701.483,690.403 -1021.047,1475.211 -1138.461,2795.932 -32.791,368.806 -44.788,1433.511 -22.755,2016.143 31.585,835.105 65.761,1044.172 173.563,1060.766 51.327,7.901 59.288,48.942 80.869,419.438 6.732,115.517 15.057,210.114 18.434,210.161 3.405,0.03 17.997,-36.194 32.543,-80.431 100.448,-305.521 376.747,-851.218 577.129,-1139.962 422.805,-609.286 887.255,-1005.39 1819.827,-1551.904 906.591,-531.293 1191.766,-738.98 1494.226,-1088.458 511.243,-590.706 781.381,-1285.501 922.213,-2371.643 15.323,-118.147 15.448,-118.155 -146.308,95.247 -180.54,238.19 -235.893,293.052 -305.312,302.849 -67.773,9.564 -152.88,72.487 -415.83,307.524 -286.528,256.11 -495.004,404.996 -1002.645,716.025 -218.295,133.751 -487.264,304.997 -597.763,380.635 -255.458,174.867 -808.94,711.122 -1098.777,1064.469 -233.361,284.503 -354.678,409.037 -354.172,363.702 0,-15.366 25.336,-159.783 55.822,-320.929 30.49,-161.151 88.374,-515.41 128.762,-787.284 40.389,-271.87 88.719,-566.846 107.416,-655.439 163.877,-776.706 580.47,-1585.588 1385.927,-2691.691 87.67,-120.388 154.867,-218.977 149.488,-218.977 z m 27596.757,0 c -5.379,0 61.905,98.589 149.575,218.977 805.457,1106.103 1221.875,1914.985 1385.752,2691.691 18.688,88.593 67.115,383.569 107.503,655.439 40.393,271.874 98.36,626.133 128.845,787.284 30.491,161.146 55.574,305.563 55.74,320.929 0.506,45.335 -120.728,-79.199 -354.09,-363.702 -289.832,-353.347 -843.314,-889.602 -1098.777,-1064.469 -110.494,-75.638 -379.633,-246.884 -597.933,-380.635 -507.65,-311.029 -716.029,-459.915 -1002.562,-716.025 -262.946,-235.037 -348.048,-297.96 -415.825,-307.524 -69.42,-9.797 -124.685,-64.659 -305.225,-302.849 -161.76,-213.402 -161.806,-213.394 -146.492,-95.247 140.841,1086.142 411.066,1780.937 922.31,2371.643 302.459,349.478 587.63,557.165 1494.226,1088.458 932.567,546.514 1397.104,942.618 1819.914,1551.904 200.372,288.744 476.589,834.441 577.037,1139.962 14.546,44.237 29.257,80.463 32.635,80.431 3.405,-0.05 11.614,-94.644 18.342,-210.161 v 0 c 21.581,-370.496 29.367,-411.537 80.694,-419.438 107.802,-16.594 142.065,-225.661 173.651,-1060.766 22.037,-582.632 10.036,-1647.337 -22.755,-2016.143 -117.42,-1320.721 -436.983,-2105.529 -1138.462,-2795.932 -350.187,-344.657 -877.858,-716.584 -1078.939,-760.561 -32.35,-7.073 -220.036,-102.924 -417.141,-213.073 -197.101,-110.154 -362.731,-200.253 -368.111,-200.193 z m -30695.188,2719.733 c -26.763,7.219 -202.42,186.335 -433.2,443.427 -98.341,109.56 -173.964,175.792 -200.635,175.325 -23.541,-0.23 -98.833,54.647 -167.296,121.968 -310.305,305.133 -669.829,994.876 -826.352,1585.329 -252.426,952.214 -193.558,2005.748 212.806,3805.811 157.237,696.505 687.034,2844.251 724.141,2935.627 44.544,109.695 90.385,162.417 141.546,162.978 48.57,0.533 58.652,26.881 134.579,351.795 37.415,160.109 64.744,240.017 73.901,216.069 7.998,-20.907 47.176,-173.253 87.137,-338.567 186.222,-770.473 478.438,-1457.082 876.27,-2059.004 210.786,-318.929 492.212,-673.949 945.673,-1192.965 194.671,-222.81 425.396,-496.776 512.661,-608.873 754.696,-969.448 1096.426,-1851.674 1282.745,-3310.793 13.492,-105.701 11.702,-103.397 -114.829,139.783 -157.228,302.166 -307.548,537.843 -332.834,521.828 -40.407,-25.592 -146.295,56.577 -292.092,226.829 -403.368,471.049 -641.676,677.37 -1250.377,1082.196 -794.501,528.397 -946.331,691.137 -1328.872,1424.115 -208.384,399.298 -214.72,400.561 -213.331,42.949 1.979,-507.784 -54.267,-1314.81 -159.096,-2283.627 -95.258,-880.352 -110.208,-1102.5 -105.124,-1561.87 7.156,-646.385 120.369,-1190.396 350.827,-1686.044 35.598,-76.567 73.249,-160.544 83.782,-186.612 2.531,-6.256 1.794,-8.705 -2.025,-7.674 z m 33793.618,0 c -3.819,-1.03 -4.643,1.418 -2.117,7.674 10.529,26.068 48.359,110.045 83.961,186.612 230.458,495.648 343.575,1039.659 350.735,1686.044 5.08,459.37 -9.87,681.518 -105.124,1561.87 -104.829,968.817 -160.987,1775.843 -159.013,2283.627 1.427,357.612 -5.029,356.349 -213.418,-42.949 -382.537,-732.978 -534.367,-895.718 -1328.872,-1424.115 -608.701,-404.826 -847.092,-611.147 -1250.464,-1082.196 -145.793,-170.252 -251.589,-252.421 -292,-226.829 -25.291,16.015 -175.519,-219.662 -332.747,-521.828 -126.535,-243.18 -128.5,-245.484 -115.004,-139.783 186.315,1459.119 528.228,2341.345 1282.925,3310.793 87.26,112.097 317.898,386.063 512.564,608.873 453.461,519.016 734.799,874.036 945.59,1192.965 397.827,601.922 690.135,1288.531 876.358,2059.004 39.956,165.314 79.139,317.66 87.132,338.567 9.157,23.948 36.49,-55.96 73.906,-216.069 75.927,-324.914 86.004,-351.258 134.579,-351.795 51.156,-0.562 97.002,-53.283 141.545,-162.978 37.108,-91.376 566.822,-2239.122 724.055,-2935.627 406.359,-1800.063 465.314,-2853.597 212.893,-3805.811 -156.524,-590.453 -516.048,-1280.196 -826.357,-1585.329 -68.458,-67.321 -143.75,-122.225 -167.292,-121.968 -26.675,0.469 -102.381,-65.765 -200.727,-175.325 -230.78,-257.092 -406.35,-436.208 -433.103,-443.427 z m -36001.664,5345.546 c -12.972,2.218 -48.524,91.105 -99.487,249.846 -81.991,255.439 -97.903,288.233 -145.953,298.969 -76.806,17.155 -141.532,144.192 -219.244,430.727 -143.409,528.77 -229.308,1187.281 -235.819,1807.835 -11.706,1117.57 207.685,2053.943 729.337,3113.862 458.182,930.947 1030.77,1751.005 2020.029,2892.765 320.751,370.198 467.132,502.188 558.866,504.102 39.136,0.81 104.654,52.816 234.677,186.436 99.192,101.932 183.618,175.841 187.668,164.125 4.049,-11.711 -6.558,-179.216 -23.547,-372.08 -44.525,-505.565 -52.201,-1257.167 -16.575,-1620.516 62.145,-633.817 141.9,-958.622 474.642,-1932.185 384.373,-1124.611 529.802,-1682.09 686.041,-2629.427 103.674,-628.617 275.116,-2196.282 243.674,-2228.42 -4.556,-4.658 -85.517,116.835 -179.997,269.866 -137.722,223.062 -181.313,278.094 -219.681,277.626 -136.659,-1.509 -579.37,701.241 -1158.041,1838.526 -467.105,917.993 -681.517,1506.063 -824.95,2262.021 -33.623,177.227 -72.889,355.198 -87.306,395.45 -25.856,72.19 -27.706,68.409 -136.171,-281.33 -151.48,-488.448 -266.718,-779.923 -571.92,-1446.78 -352.267,-769.694 -470.515,-1078.933 -653.231,-1707.826 -167.632,-576.975 -359.275,-1405.948 -493.785,-2136.613 -29.483,-160.161 -58.652,-309.822 -64.998,-332.569 -0.92,-3.268 -2.393,-4.73 -4.233,-4.413 z m 38209.71,0 c -1.886,-0.322 -3.267,1.141 -4.141,4.413 -6.346,22.747 -35.69,172.408 -65.173,332.569 -134.509,730.665 -325.978,1559.638 -493.61,2136.613 -182.721,628.893 -301.051,938.133 -653.318,1707.826 -305.207,666.857 -420.44,958.332 -571.925,1446.78 -108.465,349.74 -110.223,353.521 -136.079,281.331 -14.417,-40.253 -53.683,-218.224 -87.311,-395.45 -143.432,-755.959 -358.019,-1344.029 -825.12,-2262.022 -578.675,-1137.284 -1021.207,-1840.034 -1157.861,-1838.525 -38.369,0.464 -81.964,-54.564 -219.686,-277.627 -94.48,-153.032 -175.446,-274.523 -180.001,-269.866 -31.434,32.138 139.824,1599.803 243.499,2228.421 156.243,947.336 301.76,1504.816 686.127,2629.426 332.752,973.564 412.503,1298.368 474.652,1932.185 35.621,363.35 28.033,1114.951 -16.497,1620.517 -16.984,192.864 -27.596,360.366 -23.551,372.08 4.05,11.716 88.489,-62.193 187.677,-164.125 130.028,-133.62 195.453,-185.624 234.59,-186.436 91.733,-1.918 238.028,-133.904 558.778,-504.102 989.255,-1141.761 1562.017,-1961.818 2020.199,-2892.766 521.662,-1059.92 740.869,-1996.292 729.167,-3113.862 -6.511,-620.554 -92.322,-1279.065 -235.731,-1807.835 -77.717,-286.535 -142.356,-413.572 -219.161,-430.727 -48.046,-10.736 -64.045,-43.53 -146.042,-298.969 -50.958,-158.74 -86.51,-247.627 -99.482,-249.846 z m -17889.447,2510.544 c 7.979,0.184 12.562,5.652 20.546,16.58 20.44,27.946 21.02,124.359 1.012,159.45 -22.065,38.624 -87.877,89.69 -115.62,89.69 -13.414,0 -74.371,19.357 -135.462,42.95 -144.343,55.746 -331.39,100.325 -482.323,115.002 -139.516,13.539 -881.447,13.435 -1010.757,-0.184 -141.417,-14.882 -329.043,-59.452 -464.505,-110.327 -69.475,-26.092 -137.193,-47.448 -150.542,-47.448 -13.349,0 -48.878,-24.537 -78.931,-54.59 -53.853,-53.852 -54.543,-55.627 -49.035,-122.057 3.083,-37.073 11.357,-73.178 18.434,-80.254 9.047,-9.049 44.999,-0.05 121.174,30.426 157.136,62.869 406.419,117.812 757.826,167.034 134.707,18.869 723.879,7.228 839.145,-16.58 50.167,-10.362 129.554,-25.102 176.38,-32.807 184.428,-30.347 406.938,-91.976 511.777,-141.723 21.558,-10.234 32.943,-15.357 40.922,-15.169 z m -386.895,943.824 -8.379,47.095 c -14.781,83.046 -77.919,185.844 -145.517,236.881 -83.307,62.897 -218.181,123.578 -358.585,161.391 -128.063,34.491 -337.662,49.004 -474.293,32.895 -241.308,-28.449 -515.003,-156.227 -595.816,-278.243 -33.863,-51.12 -79.139,-170.712 -68.615,-181.234 2.393,-2.407 56.798,30.689 120.908,73.551 123.387,82.495 271.435,150.584 421.907,194.022 132.099,38.136 427.2,38.199 559.487,0.09 184.967,-53.29 375.055,-146.851 496.431,-244.29 z m -15734.582,2180.709 c -7.79,-0.09 -33.458,92.251 -56.968,205.222 -40.812,196.1 -45.933,206.704 -112.178,233.53 -119.145,48.246 -162.211,200.123 -323.047,1138.022 -194.482,1134.112 -241.653,1571.203 -249.228,2311.407 -4.721,460.745 2.393,639.61 37.214,930.597 23.716,198.134 42.505,421.204 41.451,495.635 -1.657,135.33 -1.611,135.27 -80.869,17.639 -336.911,-500.143 -662.659,-848.459 -1268.457,-1356.297 -638.864,-535.55 -925.927,-834.483 -1306.646,-1361.057 -336.138,-464.915 -653.732,-1009.282 -1030.167,-1765.768 -235.216,-472.722 -235.211,-472.737 -250.281,-357.969 -8.311,63.117 -16.134,193.533 -17.197,289.885 -1.84,151.929 -6.962,174.74 -38.81,171.797 -105.781,-9.783 -134.859,334.159 -70.46,834.291 309.468,2403.495 1711.243,4128.516 5135.472,6319.884 417.016,266.87 594.937,363.904 670.082,365.022 24.361,0.46 159.197,68.601 299.67,151.692 140.474,83.087 257.539,149.212 260.258,146.925 2.715,-2.301 -41.023,-134.901 -97.278,-294.65 -214.614,-609.428 -417.039,-1360.376 -540.97,-2006.704 -153.031,-798.126 -227.614,-1471.733 -320.838,-2898.939 -68.886,-1054.561 -87.371,-1283.122 -133.874,-1658.968 -60.443,-488.532 -172.368,-1002.067 -293.063,-1343.949 -72.066,-204.141 -234.42,-566.78 -253.816,-567.247 z m 29812.221,0 c -19.391,0.465 -181.75,363.106 -253.815,567.247 -120.696,341.882 -232.791,855.417 -293.233,1343.949 -46.504,375.846 -64.994,604.407 -133.88,1658.968 -93.224,1427.206 -167.623,2100.813 -320.658,2898.939 -123.931,646.328 -326.443,1397.276 -541.053,2006.704 -56.259,159.749 -100.081,292.34 -97.37,294.65 2.715,2.301 119.867,-63.838 260.341,-146.925 v 0 c 140.478,-83.091 275.314,-151.305 299.675,-151.692 75.14,-1.104 252.973,-98.152 669.99,-365.022 3424.233,-2191.368 4826.091,-3916.389 5135.563,-6319.884 64.39,-500.132 35.317,-844.074 -70.469,-834.291 -31.843,2.945 -37.052,-19.868 -38.888,-171.797 -1.105,-96.352 -8.891,-226.768 -17.201,-289.885 -15.066,-114.768 -15.061,-114.753 -250.286,357.969 -376.43,756.486 -694.024,1300.853 -1030.163,1765.768 -380.723,526.574 -667.694,825.507 -1306.554,1361.057 -605.802,507.838 -931.637,856.154 -1268.549,1356.297 -79.239,117.631 -79.184,117.691 -80.868,-17.639 -1.059,-74.431 17.647,-297.501 41.359,-495.635 34.82,-290.987 42.118,-469.852 37.393,-930.597 -7.579,-740.204 -54.746,-1177.295 -249.228,-2311.407 -160.831,-937.899 -203.985,-1089.776 -323.135,-1138.022 -66.244,-26.826 -71.283,-37.43 -112.09,-233.53 -23.51,-112.971 -49.182,-205.306 -56.968,-205.222 z m -28523.213,4029.024 c 0,7.737 37.098,155.813 82.548,329.042 93.671,357.004 92.723,350.939 52.21,350.471 -75.885,-0.837 -75.71,160.612 0.644,584.798 108.115,600.863 141.675,844.341 240.853,1745.22 152.235,1382.838 194.625,1588.221 462.559,2246.587 119.849,294.481 170.333,460.221 147.196,482.848 -7.869,7.698 -118.068,-54.369 -244.907,-137.929 -523.212,-344.665 -1035.496,-607.224 -1750.862,-897.705 -1088.64,-442.04 -1525.333,-722.154 -2138.203,-1371.373 -360.605,-381.99 -804.039,-975.344 -1154.075,-1544.231 -86.165,-140.04 -159.064,-252.174 -162.096,-249.229 -3.037,2.959 34.461,175.257 83.344,382.925 87.288,370.873 88.103,377.985 44.797,393.777 -40.945,14.931 -43.338,28.633 -33.509,193.314 18.043,302.429 229.16,1060.726 428.258,1538.058 482.999,1157.984 1342.396,1841.963 3207.603,2552.788 996.452,379.739 2938.506,944.844 4306.657,1253.198 253.922,57.235 514.833,117.879 579.766,134.758 64.934,16.883 121.064,31.719 124.704,33.072 16.212,6.005 -40.738,-71.518 -261.137,-355.677 -768.404,-990.713 -1256.782,-1806.804 -1531.793,-2559.49 -90.431,-247.502 -130.47,-380.884 -320.047,-1068.614 -73.961,-268.295 -173.435,-597.48 -221.098,-731.549 -237.871,-669.113 -596.116,-1353.337 -1151.075,-2198.434 -213.597,-325.275 -792.024,-1133.157 -792.309,-1106.625 z m 27234.118,0 c -0.46,-26.532 -578.62,781.35 -792.222,1106.625 -554.959,845.097 -913.291,1529.321 -1151.162,2198.434 -47.664,134.069 -147.224,463.254 -221.181,731.549 -189.582,687.73 -229.446,821.112 -319.872,1068.614 -275.011,752.686 -763.476,1568.777 -1531.886,2559.49 -220.394,284.159 -277.343,361.682 -261.136,355.677 3.635,-1.335 59.77,-16.189 124.703,-33.072 64.934,-16.879 325.849,-77.523 579.771,-134.758 1368.151,-308.354 3310.201,-873.459 4306.652,-1253.198 1865.212,-710.825 2724.609,-1394.804 3207.608,-2552.788 199.098,-477.332 410.298,-1235.629 428.346,-1538.058 9.829,-164.681 7.348,-178.383 -33.601,-193.314 -43.306,-15.792 -42.492,-22.904 44.796,-393.777 48.883,-207.668 86.46,-379.964 83.437,-382.925 -3.037,-2.945 -76.019,109.189 -162.184,249.229 -350.04,568.887 -793.474,1162.241 -1154.075,1544.231 -612.875,649.219 -1049.563,929.333 -2138.198,1371.373 -715.371,290.481 -1227.572,553.04 -1750.78,897.705 -126.843,83.56 -237.125,145.627 -244.994,137.929 -23.141,-22.627 27.43,-188.367 147.279,-482.848 267.938,-658.366 310.241,-863.749 462.481,-2246.587 99.173,-900.879 132.733,-1144.357 240.843,-1745.22 76.327,-424.186 76.507,-585.633 0.644,-584.798 -40.507,0.46 -41.368,6.533 52.302,-350.471 45.451,-173.229 82.544,-321.305 82.461,-329.042 z m -2714.614,4201.439 c 0.01,0 0,0.46 0,0.46 0.01,0 0,0 0,0 z m 0,0.46 c -3.728,-2.623 -22.13,10.579 -59.085,37.213 -991.923,714.998 -1814.447,1360.369 -2443.078,1916.93 -140.704,124.57 -519.25,498.778 -841.175,831.557 -446.112,461.159 -625.934,632.031 -756.237,718.495 -341.449,226.57 -889.708,476.285 -2136.611,973.19 -315.33,125.666 -573.232,234.011 -573.158,240.761 0,14.537 602.663,191.8 1090.664,320.843 1656.654,438.06 3158.587,709.913 4152.222,751.659 463.304,19.461 536.152,19.474 914.814,0 1041.359,-53.093 1940.085,-331.362 2649.53,-820.361 331.173,-228.272 548.01,-413.469 924.776,-789.752 355.686,-355.225 571.023,-609.575 624.485,-737.721 17.642,-42.284 41.226,-97.692 52.476,-123.203 11.247,-25.511 172.565,-208.048 358.494,-405.678 185.928,-197.635 338.034,-365.538 337.951,-373.053 0,-7.505 -113.135,66.793 -251.17,165.009 -1134.923,807.528 -2028.15,1258.472 -2852.547,1440.162 -447.217,98.557 -556.027,106.325 -1935.893,138.904 -743.133,17.546 -1462.158,44.544 -1606.671,60.41 -278.117,30.536 -351.412,18.996 -352.235,-55.739 -0.736,-65.619 56.475,-125.017 335.126,-347.827 442.035,-353.445 714.805,-668.31 1003.179,-1157.774 202.231,-343.257 1047.566,-1966.913 1089.956,-2093.485 30.402,-90.78 32.92,-121.68 12.088,-154.25 -26.551,-41.488 -19.078,-57.033 232.114,-477.468 22.387,-37.475 33.468,-55.951 29.985,-58.822 z m -21804.614,0 v 0.46 c 0.01,0 0,0 0,0 0,-0.01 0,-0.46 0,-0.46 z m 0,0.46 c -3.497,2.853 7.593,21.347 29.985,58.822 251.192,420.436 258.67,435.98 232.119,477.468 -20.841,32.57 -18.499,63.465 11.904,154.246 42.395,126.576 887.816,1750.232 1090.048,2093.489 288.374,489.464 561.139,804.325 1003.174,1157.779 278.651,222.805 335.853,282.203 335.131,347.822 -0.828,74.73 -74.035,86.271 -352.152,55.739 -144.514,-15.866 -863.534,-42.864 -1606.666,-60.41 -1379.867,-32.579 -1488.852,-40.347 -1936.064,-138.904 -824.401,-181.69 -1717.542,-632.634 -2852.465,-1440.166 -138.039,-98.217 -251.031,-172.51 -251.087,-165.005 0,7.51 151.936,175.418 337.869,373.048 185.924,197.635 347.247,380.167 358.493,405.683 11.251,25.507 34.922,81.007 52.564,123.291 53.462,128.141 268.619,382.408 624.31,737.634 376.771,376.278 593.686,561.479 924.859,789.751 709.449,488.999 1608.171,767.268 2649.534,820.361 378.662,19.474 451.593,19.461 914.897,0 993.644,-41.745 2495.578,-313.599 4152.231,-751.659 488.001,-129.043 1090.472,-306.306 1090.665,-320.838 0,-6.755 -257.92,-115.1 -573.25,-240.765 -1246.903,-496.91 -1795.075,-746.621 -2136.523,-973.191 -130.304,-86.468 -310.213,-257.335 -756.33,-718.495 -321.92,-332.784 -700.467,-706.987 -841.17,-831.557 -628.636,-556.56 -1451.068,-1201.932 -2442.991,-1916.925 -36.955,-26.644 -55.371,-39.855 -59.085,-37.218 z m 8997.636,4415.301 c -588.979,-5.578 -1081.88,82.111 -1844.169,328.159 -279.231,90.132 -584.336,183.397 -677.928,207.252 -93.592,23.855 -234.59,79.999 -313.429,124.699 -855.426,484.973 -2118.642,910.332 -3124.71,1052.301 -581.874,82.106 -903.048,99.749 -1669.377,91.277 -757.969,-8.375 -1093.398,-32.266 -1834.732,-130.257 -245.868,-32.502 -462.503,-56.241 -481.351,-52.735 -22.106,4.096 19.515,48.998 117.207,126.462 83.285,66.037 151.628,131.279 151.959,144.9 1.013,42.822 228.788,240.093 446.067,386.369 1195.342,804.675 2339.905,1259.728 3437.435,1366.518 643.858,62.651 1300.397,-48.285 1943.919,-328.422 483.353,-210.413 875.203,-450.07 1757.829,-1074.964 1059.59,-750.164 1590.648,-1038.956 2169.332,-1179.825 217.486,-52.942 259.453,-41.612 243.936,65.527 -10.703,73.906 -184,201.256 -966.573,710.378 -1102.49,717.244 -2503.934,1715.586 -2673.526,1904.496 -95.493,106.371 -111.198,201.459 -53.443,324.193 66.879,142.13 270.827,350.523 362.993,370.936 43.748,9.691 112.247,53.613 164.922,105.653 90.127,89.05 90.182,89.05 509.389,-314.318 1542.405,-1484.111 2743.706,-2393.601 3898.503,-2951.413 183.301,-88.54 276.124,-125.675 340.243,-135.817 64.119,10.119 157.021,47.227 340.418,135.817 1154.793,557.812 2356.098,1467.302 3898.499,2951.413 419.216,403.368 419.174,403.368 509.306,314.318 52.67,-52.04 121.252,-95.962 165.004,-105.653 92.171,-20.413 296.114,-228.806 362.999,-370.936 57.75,-122.734 42.049,-217.822 -53.444,-324.193 -169.597,-188.91 -1571.123,-1187.252 -2673.609,-1904.496 -782.582,-509.122 -955.879,-636.472 -966.582,-710.378 -15.512,-107.139 26.537,-118.469 244.028,-65.527 578.685,140.869 1109.738,429.661 2169.333,1179.825 882.621,624.894 1274.388,864.551 1757.741,1074.964 643.522,280.137 1300.066,391.073 1943.919,328.422 1097.525,-106.79 2242.18,-561.843 3437.522,-1366.518 217.279,-146.276 444.995,-343.547 445.979,-386.369 0.461,-13.621 68.767,-78.863 152.042,-144.9 97.697,-77.464 139.231,-122.353 117.12,-126.462 -18.848,-3.543 -235.395,20.233 -481.259,52.735 -741.333,97.991 -1076.763,121.882 -1834.731,130.257 -766.334,8.472 -1087.504,-9.171 -1669.377,-91.277 -1006.064,-141.969 -2269.377,-567.328 -3124.802,-1052.301 -78.835,-44.7 -219.833,-100.844 -313.43,-124.699 -93.587,-23.855 -398.61,-117.12 -677.84,-207.252 -762.28,-246.048 -1255.182,-333.737 -1844.169,-328.159 -557.909,5.291 -975.459,79.847 -1651.468,294.908 -116.513,37.07 -189.103,57.616 -253.199,65.619 -64.073,-8.012 -136.654,-28.567 -253.111,-65.619 -676.005,-215.061 -1093.472,-289.617 -1651.385,-294.908 z" /><text
       xml:space="preserve"
       style="font-style:normal;font-variant:normal;font-weight:normal;font-stretch:normal;font-size:7592.11px;font-family:'Matura MT Script Capitals';-inkscape-font-specification:'Matura MT Script Capitals';text-align:center;text-anchor:middle;fill:#000000;fill-opacity:1;stroke:none;stroke-width:71.1754;stroke-linecap:butt;stroke-dasharray:none"
       x="42773.234"
       y="-42492.68"
       id="text355"><tspan
         x="42773.234"
         y="-42492.68"
         style="font-style:normal;font-variant:normal;font-weight:normal;font-stretch:normal;font-family:'Modern No. 20';-inkscape-font-specification:'Modern No. 20, ';stroke-width:71.1754"
         id="tspan351"
         dy="0.67477947">The Speech Society</tspan><tspan
         x="42773.234"
         y="-33002.543"
         style="font-style:normal;font-variant:normal;font-weight:normal;font-stretch:normal;font-size:2699.12px;font-family:'Modern No. 20';-inkscape-font-specification:'Modern No. 20, ';stroke-width:71.1754"
         id="tspan353" /></text><text
       xml:space="preserve"
       style="font-style:normal;font-variant:normal;font-weight:normal;font-stretch:normal;font-size:2699.12px;font-family:'Modern No. 20';-inkscape-font-specification:'Modern No. 20, ';text-align:center;text-anchor:middle;fill:#000000;fill-opacity:1;stroke:none;stroke-width:42.1736;stroke-linecap:butt;stroke-dasharray:none"
       x="42863.918"
       y="-37255.504"
       id="text359"><tspan
         id="tspan357"
         x="42863.918"
         y="-37255.504"
         style="stroke-width:42.1736">University of Engineering &amp; Management, Jaipur</tspan></text><text
       xml:space="preserve"
       style="font-size:4365.35px;font-family:'Brush Script MT';-inkscape-font-specification:'Brush Script MT';text-align:center;text-anchor:middle;fill:#ffffff;stroke:none;stroke-width:90.7728"
       x="43032.781"
       y="-31953.59"
       id="text469"><tspan
         x="43032.781"
         y="-31953.59"
         style="font-style:normal;font-variant:normal;font-weight:normal;font-stretch:normal;font-size:4365.35px;font-family:'Modern No. 20';-inkscape-font-specification:'Modern No. 20, ';fill:#000000;stroke:none;stroke-width:90.7728"
         id="tspan725">Think. Script. Speak.</tspan></text></g><text
     xml:space="preserve"
     style="font-size:2311.9px;font-family:'Brush Script MT';-inkscape-font-specification:'Brush Script MT';text-align:center;text-anchor:middle;fill:#ffffff;stroke:#f8f8f8;stroke-width:72.2468"
     x="8948.5635"
     y="1509.6707"
     id="text347"
     inkscape:export-filename="text347.png"
     inkscape:export-xdpi="96"
     inkscape:export-ydpi="96"><tspan
       id="tspan345"
       x="8948.5635"
       y="1509.6707"
       style="font-style:normal;font-variant:normal;font-weight:normal;font-stretch:normal;font-family:'Modern No. 20';-inkscape-font-specification:'Modern No. 20, ';text-align:start;text-anchor:start;fill:#000000;stroke:none;stroke-width:72.2468">Think.</tspan><tspan
       x="8948.5635"
       y="4513.2412"
       style="font-style:normal;font-variant:normal;font-weight:normal;font-stretch:normal;font-family:'Modern No. 20';-inkscape-font-specification:'Modern No. 20, ';text-align:start;text-anchor:start;fill:#000000;stroke:none;stroke-width:72.2468"
       id="tspan414">Script.</tspan><tspan
       x="8948.5635"
       y="7516.813"
       style="font-style:normal;font-variant:normal;font-weight:normal;font-stretch:normal;font-family:'Modern No. 20';-inkscape-font-specification:'Modern No. 20, ';text-align:start;text-anchor:start;fill:#000000;stroke:none;stroke-width:72.2468"
       id="tspan416">Speak.</tspan></text></svg>
